<svg xmlns="http://www.w3.org/2000/svg" xmlns:xlink="http://www.w3.org/1999/xlink" id="Layer_1" data-name="Layer 1" viewBox="0 0 104 92"><defs><style>.cls-1{fill:#fff}.cls-1,.cls-8{fill-rule:evenodd}.cls-2{opacity:.6}.cls-3,.cls-4{fill:#015bd7;fill-opacity:.8}.cls-4{fill:#0083fc}.cls-5{fill:url(#linear-gradient)}.cls-6{fill:url(#linear-gradient-2)}.cls-7{fill:url(#linear-gradient-3)}.cls-8{fill:url(#linear-gradient-4)}.cls-9{mask:url(#mask)}.cls-10{fill-opacity:.15;fill:url(#linear-gradient-5)}</style><linearGradient id="linear-gradient" x1="68.85" x2="19.91" y1="2073.17" y2="2099.68" gradientTransform="translate(0 -2066)" gradientUnits="userSpaceOnUse"><stop offset="0" stop-color="#fff"/><stop offset="1" stop-color="#fff" stop-opacity=".18"/></linearGradient><linearGradient id="linear-gradient-2" x1="68.82" x2="19.87" y1="2091.69" y2="2118.2" xlink:href="#linear-gradient"/><linearGradient id="linear-gradient-3" x1="68.83" x2="19.88" y1="2110.28" y2="2136.79" xlink:href="#linear-gradient"/><linearGradient id="linear-gradient-4" x1="42.07" x2="54.83" y1="2135.9" y2="2073.07" gradientTransform="translate(0 -2066)" gradientUnits="userSpaceOnUse"><stop offset=".27" stop-color="#0083fc" stop-opacity=".4"/><stop offset=".86" stop-color="#64fbc1" stop-opacity=".9"/></linearGradient><mask id="mask" width="47.6" height="58.1" x="24" y="9.3" maskUnits="userSpaceOnUse"><g id="path-7-inside-1_1479:4044" data-name="path-7-inside-1 1479:4044"><path d="M70.6,19.3a9,9,0,1,1-9-9A9,9,0,0,1,70.6,19.3ZM43,37.8a9,9,0,1,1-9-9A9,9,0,0,1,43,37.8ZM59.2,66.4a9,9,0,1,0-9-9A9,9,0,0,0,59.2,66.4Z" class="cls-1"/></g></mask><linearGradient id="linear-gradient-5" x1="68.56" x2="24.23" y1="2104.07" y2="2105.57" xlink:href="#linear-gradient"/></defs><g class="cls-2"><path d="M7.2,5.6h26a2,2,0,0,1,2,2v56a2,2,0,0,1-2,2H7.2a2,2,0,0,1-2-2V7.6A1.94,1.94,0,0,1,7.2,5.6Z" class="cls-3"/></g><g class="cls-2"><path d="M60.3,46.6h26a2,2,0,0,1,2,2v26a2,2,0,0,1-2,2h-26a2,2,0,0,1-2-2v-26A2,2,0,0,1,60.3,46.6Z" class="cls-4"/></g><rect width="65" height="5" x="13.4" y="17.1" class="cls-5"/><rect width="65" height="5" x="13.4" y="35.6" class="cls-6"/><rect width="65" height="5" x="13.4" y="54.2" class="cls-7"/><path d="M70.6,19.3a9,9,0,1,1-9-9A9,9,0,0,1,70.6,19.3ZM43,37.8a9,9,0,1,1-9-9A9,9,0,0,1,43,37.8ZM59.2,66.4a9,9,0,1,0-9-9A9,9,0,0,0,59.2,66.4Z" class="cls-8"/><g class="cls-9"><path d="M61.6,29.3a10,10,0,0,0,10-10h-2a8,8,0,0,1-8,8Zm-10-10a10,10,0,0,0,10,10v-2a8,8,0,0,1-8-8Zm10-10a10,10,0,0,0-10,10h2a8,8,0,0,1,8-8Zm10,10a10,10,0,0,0-10-10v2a8,8,0,0,1,8,8ZM34,47.8a10,10,0,0,0,10-10H42a8,8,0,0,1-8,8Zm-10-10a10,10,0,0,0,10,10v-2a8,8,0,0,1-8-8Zm10-10a10,10,0,0,0-10,10h2a8,8,0,0,1,8-8Zm10,10a10,10,0,0,0-10-10v2a8,8,0,0,1,8,8ZM67.2,57.4a8,8,0,0,1-8,8v2a10,10,0,0,0,10-10Zm-8-8a8,8,0,0,1,8,8h2a10,10,0,0,0-10-10Zm-8,8a8,8,0,0,1,8-8v-2a10,10,0,0,0-10,10Zm8,8a8,8,0,0,1-8-8h-2a10,10,0,0,0,10,10Z" class="cls-10"/></g></svg>